<?xml version="1.0" encoding="utf-8"?>
<!-- Generator: Adobe Illustrator 25.2.0, SVG Export Plug-In . SVG Version: 6.00 Build 0)  -->
<svg version="1.1" xmlns="http://www.w3.org/2000/svg" xmlns:xlink="http://www.w3.org/1999/xlink" x="0px" y="0px"
	 viewBox="0 0 354 592" style="enable-background:new 0 0 354 592;" xml:space="preserve">
<style type="text/css">
	.st0{opacity:0.49;}
	.st1{fill:#80B574;}
	.st2{fill:#E5CA2C;}
	.st3{fill:#67E22D;}
	.st4{fill:#2F76DD;}
	.st5{fill:#2DE09F;}
</style>
<g id="home">
	<g>
		<g class="st0">
			<path class="st1" d="M149.94,24.96c-76.74,0-138.95,62.21-138.95,138.95S73.2,302.86,149.94,302.86s138.95-62.21,138.95-138.95
				S226.68,24.96,149.94,24.96z M53.64,120.88l16.38-5.53c4.17-1.34,7.88-2.44,11.4-3.24l0-0.15c-3.39-0.9-7.07-2.15-11.3-3.71
				l-16.22-6.22l0.08-5.55l33.73-1.64l-0.06,4.25l-14.81,0.65c-4.7,0.19-10.36,0.41-14.56,0.3l0,0.15c3.93,1.2,8.12,2.66,12.74,4.43
				l16.27,6.17l-0.05,3.3l-16.12,5.23c-4.77,1.54-9.14,2.83-13.15,3.72l0,0.1c4.2,0.16,9.84,0.49,14.89,0.85l14.44,1.1l-0.06,4.15
				l-33.67-2.81L53.64,120.88z M63.64,159.04c-3.98-8.29-0.2-16.71,8.81-21.04c10.46-5.02,19.05-1.33,22.78,6.42
				c3.85,8.02,0.34,16.64-8.85,21.06C76.73,170.12,67.54,167.15,63.64,159.04z M100.22,201.78l-3.29-2.84l9.22-10.67l-12.33-10.66
				l-9.22,10.67l-3.33-2.88l22.04-25.5l3.33,2.88L96.3,174.73l12.33,10.66l10.33-11.96l3.29,2.85L100.22,201.78z M164.65,186.17
				c-42.28,0-76.56-34.28-76.56-76.56c0-6.37,0.79-12.55,2.26-18.47l-0.17,0.41L59.15,78.41l7.1-16.76l3.36,1.42l-5.4,12.75
				l9.81,4.16l5.11-12.06l3.31,1.4l-5.11,12.06l11.19,4.74l5.7-13.44l2.75,1.17c12.84-24.26,38.33-40.79,67.69-40.79
				c42.28,0,76.56,34.28,76.56,76.56C241.21,151.89,206.94,186.17,164.65,186.17z"/>
		</g>
		<g class="st0">
			<path class="st1" d="M91.92,145.74c-2.99-6.22-10.4-6.99-17.3-3.67c-6.04,2.9-10.83,9.09-7.7,15.62
				c3.12,6.49,10.67,6.86,17.34,3.65C90.76,158.22,94.88,151.91,91.92,145.74z"/>
		</g>
	</g>
</g>
<g id="assignment01">
	<path class="st2" d="M240.76,18.8c-24.98,0-45.24,20.25-45.24,45.24s20.25,45.24,45.24,45.24c24.98,0,45.24-20.25,45.24-45.24
		S265.75,18.8,240.76,18.8z M248.26,100.92h-8.5v-56.8h-0.2l-11.3,6.1l-1.7-6.7l14.2-7.6h7.5V100.92z"/>
</g>
<g id="assignment02">
	<path class="st3" d="M302.73,96.69c-24.98,0-45.24,20.25-45.24,45.24s20.25,45.24,45.24,45.24s45.24-20.25,45.24-45.24
		S327.71,96.69,302.73,96.69z M324.16,174.92h-41.5v-5.4l6.9-6.7c16.6-15.8,24.1-24.2,24.2-34c0-6.6-3.2-12.7-12.9-12.7
		c-5.9,0-10.8,3-13.8,5.5l-2.8-6.2c4.5-3.8,10.9-6.6,18.4-6.6c14,0,19.9,9.6,19.9,18.9c0,12-8.7,21.7-22.4,34.9l-5.2,4.8v0.2h29.2
		V174.92z"/>
</g>
<g id="assignment03">
	<path class="st4" d="M287.24,196.52c-24.98,0-45.24,20.25-45.24,45.24c0,24.98,20.25,45.24,45.24,45.24
		c24.98,0,45.24-20.25,45.24-45.24C332.48,216.78,312.22,196.52,287.24,196.52z M283.26,275.02c-7.3,0-13.7-2.3-16.9-4.4l2.4-6.8
		c2.5,1.6,8.3,4.1,14.4,4.1c11.3,0,14.8-7.2,14.7-12.6c-0.1-9.1-8.3-13-16.8-13h-4.9v-6.6h4.9c6.4,0,14.5-3.3,14.5-11
		c0-5.2-3.3-9.8-11.4-9.8c-5.2,0-10.2,2.3-13,4.3l-2.3-6.4c3.4-2.5,10-5,17-5c12.8,0,18.6,7.6,18.6,15.5c0,6.7-4,12.4-12,15.3v0.2
		c8,1.6,14.5,7.6,14.5,16.7C306.96,265.92,298.86,275.02,283.26,275.02z"/>
</g>
<g id="therest">
	<g>
		<path class="st5" d="M210.88,258.04c-24.98,0-45.24,20.25-45.24,45.24c0,24.98,20.25,45.24,45.24,45.24s45.24-20.25,45.24-45.24
			C256.12,278.3,235.86,258.04,210.88,258.04z M234.26,317.22h-9.1v17.7h-8.3v-17.7h-30.2v-5.8l29-41.5h9.5v40.4h9.1V317.22z"/>
		<path class="st5" d="M211.46,288.02l-15.9,22.1v0.2h21.3v-21.7c0-3.4,0.1-6.8,0.3-10.2h-0.3
			C214.86,282.22,213.26,285.02,211.46,288.02z"/>
	</g>
	<path class="st5" d="M117.88,303.04c-24.98,0-45.24,20.25-45.24,45.24c0,24.98,20.25,45.24,45.24,45.24s45.24-20.25,45.24-45.24
		C163.12,323.3,142.86,303.04,117.88,303.04z M107.56,382.02c-7.1,0-13.1-2-16.2-4l2.2-6.7c2.7,1.6,8,3.6,13.9,3.6
		c8.3,0,15.4-5.4,15.4-14.1c-0.1-8.4-5.7-14.4-18.7-14.4c-3.7,0-6.6,0.4-9,0.7l4.2-31.2h31.1v7.4h-24.8l-2.5,16.7
		c1.5-0.2,2.9-0.4,5.3-0.4c5,0,10,1.1,14,3.5c5.1,2.9,9.3,8.5,9.3,16.7C131.76,372.52,121.66,382.02,107.56,382.02z"/>
	<g>
		<path class="st5" d="M64.86,441.72c-5.3,0-10.2,3.3-12.6,8c-0.6,1-1,2.3-1,3.9c0.2,10.7,5.1,18.6,14.3,18.6
			c7.6,0,12.7-6.3,12.7-15.6C78.26,447.32,72.96,441.72,64.86,441.72z"/>
		<path class="st5" d="M65.88,399.04c-24.98,0-45.24,20.25-45.24,45.24c0,24.98,20.25,45.24,45.24,45.24s45.24-20.25,45.24-45.24
			C111.12,419.3,90.86,399.04,65.88,399.04z M65.56,479.02c-13.9,0-23-10.8-23-27.7c0-12.8,4.6-22.9,11-29.3
			c5.4-5.3,12.6-8.6,20.8-9.6c2.6-0.4,4.8-0.5,6.4-0.5v7.2c-1.8-0.1-4.1,0-6.6,0.4c-13.8,2.3-21.1,12.4-22.6,23.1h0.3
			c3.1-4.1,8.5-7.5,15.7-7.5c11.5,0,19.6,8.3,19.6,21C87.16,468.02,79.06,479.02,65.56,479.02z"/>
	</g>
	<path class="st5" d="M117.88,494.04c-24.98,0-45.24,20.25-45.24,45.24c0,24.98,20.25,45.24,45.24,45.24s45.24-20.25,45.24-45.24
		C163.12,514.3,142.86,494.04,117.88,494.04z M137.86,514.71l-28.3,59.2h-9.1l28.2-57.5v-0.2h-31.8v-7.3h41V514.71z"/>
</g>
</svg>
